{"title":"The.Other.Guys.2010.DVDSCR.AC3.XviD-TA","uid":5794452,"size":832501433,"categoryP":"video","categoryS":"movies","magnet":"?xt=urn:btih:ab938495832497c0cf72a7b6848c3ce7fdc59f98&amp;dn=The.Other.Guys.2010.DVDSCR.AC3.XviD-TA&amp;tr=udp%3A%2F%2Ftracker.openbittorrent.com%3A80&amp;tr=udp%3A%2F%2Fopen.demonii.com%3A1337&amp;tr=udp%3A%2F%2Ftracker.coppersurfer.tk%3A6969&amp;tr=udp%3A%2F%2Fexodus.desync.com%3A6969","seeders":0,"leechers":0,"uploader":"TvTeam","files":5,"time":1282992319,"description":". \n  &lt;a href=&quot;\nhttp://www.torrentday.com/&quot; rel=&quot;nofollow&quot; target=&quot;_NEW&quot;&gt;\nhttp://www.torrentday.com/&lt;/a&gt;        :     The Hottest Private Tracker On The Net!!!\n\n\n               www . TorrentDay . Com \n(((((((((((((= Enjoy No RAR releases =))))))))))))))))))))\n\n\n...................................NFO:....................................\n\n.The.Other.Guys.2010.DVDSCR.AC3.XviD-TA\n\n[img]http://trackeraccess.org/covers/pics/7b2bd93cacd5d1d852a86754526efe70.png[/img]\n\nPlot:\nerry Hoitz's past mistakes in the line of duty and Allen Gamble's reluctance to take risks have landed them the roles of the &quot;Other Guys&quot;, disgraced New York City police detectives relegated to filling out paperwork for cocky hero cops Danson and Highsmith. The mismatched duo must look past their differences when they take on a high-profile investigation of shady capitalist David Ershon and attempt to fill the shoes of the notoriously reckless officers they idolize.\n &lt;a href=&quot;\nhttp://www.imdb.com/title/tt1386588/&quot; rel=&quot;nofollow&quot; target=&quot;_NEW&quot;&gt;\nhttp://www.imdb.com/title/tt1386588/&lt;/a&gt;\n\nSource                           : IMAGiNE vobs (Thanks)\nComplete name                    : The.Other.Guys.2010.DVDSCR.AC3.XviD-TA.avi\nFormat                           : AVI\nFormat/Info                      : Audio Video Interleave\nFile size                        : 786 MiB\nDuration                         : 1h 47mn\nOverall bit rate                 : 1 024 Kbps\nWriting library                  : VirtualDub build 32661/release\n\nVideo\nID                               : 0\nFormat                           : MPEG-4 Visual\nFormat profile                   : AdvancedSimple@L5\nFormat settings, BVOP            : Yes\nFormat settings, QPel            : No\nFormat settings, GMC             : No warppoints\nFormat settings, Matrix          : Default (H.263)\nMuxing mode                      : Packed bitstream\nCodec ID                         : XVID\nCodec ID/Hint                    : XviD\nDuration                         : 1h 47mn\nBit rate                         : 759 Kbps\nWidth                            : 606 pixels\nHeight                           : 244 pixels\nDisplay aspect ratio             : 2.484\nFrame rate                       : 23.976 fps\nResolution                       : 24 bits\nColorimetry                      : 4:2:0\nScan type                        : Progressive\nBits/(Pixel*Frame)               : 0.214\nStream size                      : 582 MiB (74%)\nWriting library                  : XviD 1.2.1 (UTC 2008-12-04)\n\nAudio\nID                               : 1\nFormat                           : AC-3\nFormat/Info                      : Audio Coding 3\nCodec ID                         : 2000\nDuration                         : 1h 47mn\nBit rate mode                    : Constant\nBit rate                         : 256 Kbps\nChannel(s)                       : 2 channels\nChannel positions                : L R\nSampling rate                    : 48.0 KHz\nStream size                      : 196 MiB (25%)\nAlignment                        : Aligned on interleaves\nInterleave, duration             : 42 ms (1.00 video frame)\nInterleave, preload duration     : 512 ms\n\nNeeds: We are looking for Audio Syncers and any other Exclusive CAM sources. Both Audio and Video\nAll deotting done by &quot;dedots crew&quot; find us on irc Efnet channel #ddcrew\n\nContact us: &lt;a class=&quot;__cf_email__&quot; href=&quot;/cdn-cgi/l/email-protection&quot; data-cfemail=&quot;e59184ba9782a58d90968d88848c89cb868a88&quot;&gt;[email&amp;#160;protected]&lt;/a&gt;&lt;script data-cfhash='f9e31' type=&quot;text/javascript&quot;&gt;\n/* &lt;![CDATA[ */!function(){try{var t=&quot;currentScript&quot;in document?document.currentScript:function(){for(var t=document.getElementsByTagName(&quot;script&quot;),e=t.length;e--;)if(t[e].getAttribute(&quot;data-cfhash&quot;))return t[e]}();if(t&amp;&amp;t.previousSibling){var e,r,n,i,c=t.previousSibling,a=c.getAttribute(&quot;data-cfemail&quot;);if(a){for(e=&quot;&quot;,r=parseInt(a.substr(0,2),16),n=2;a.length-n;n+=2)i=parseInt(a.substr(n,2),16)^r,e+=String.fromCharCode(i);e=document.createTextNode(e),c.parentNode.replaceChild(e,c)}t.parentNode.removeChild(t);}}catch(u){}}()/* ]]&gt; */&lt;/script&gt;\n\nGreetz: IMAGiNE - PrisM - KINGDOM - LU - SLUGGER - Relizlab - ELEKTRI4KA\nand all those that contribute...\n\nScreens:\n\nEnjoy,\nTA-rg","torrent":{"xt":"urn:btih:ab938495832497c0cf72a7b6848c3ce7fdc59f98","amp;dn":"The.Other.Guys.2010.DVDSCR.AC3.XviD-TA","amp;tr":["udp%3A%2F%2Ftracker.openbittorrent.com%3A80","udp%3A%2F%2Fopen.demonii.com%3A1337","udp%3A%2F%2Ftracker.coppersurfer.tk%3A6969","udp%3A%2F%2Fexodus.desync.com%3A6969"],"infoHash":"ab938495832497c0cf72a7b6848c3ce7fdc59f98","infoHashBuffer":{"type":"Buffer","data":[171,147,132,149,131,36,151,192,207,114,167,182,132,140,60,231,253,197,159,152]},"announce":[],"urlList":[]}}